<svg width="64" height="45" viewBox="0 0 20 20" fill="none" xmlns="http://www.w3.org/2000/svg">
<path d="M21.0556 15.4946C22.1602 14.3682 26.2563 10.3453 22.3249 9.95191C20.1752 9.73681 12.8666 11.0392 13.1657 14.6089C13.3052 16.2733 15.793 17.1774 16.8493 17.6822C19.5602 18.9776 22.8211 19.8749 25.0503 22.0976C29.5508 26.5847 22.5726 30.6725 19.3133 32.1899C17.5691 33.0019 15.6298 33.844 13.7382 34.1761C11.5781 34.5553 14.3972 32.134 14.6466 31.8946C19.7967 26.952 24.4203 21.9925 28.2237 15.7094C30.4645 12.0076 34.9442 3.72847 28.5099 1.48351C21.69 -0.895985 13.1126 6.03058 8.81014 10.8511C4.83554 15.3043 -3.13158 27.0354 3.62076 32.673C9.84191 37.8671 19.819 35.4937 26.4316 32.8072C29.4122 31.5963 38.5463 28.5314 37.6193 23.3994C37.296 21.6095 35.7927 20.1044 34.4211 19.1719C32.3538 17.7664 32.714 18.9181 32.7037 21.4802C32.6738 28.9234 32.8887 36.6063 32.0317 44" stroke="#FFD700" stroke-width="2" stroke-linecap="round" stroke-linejoin="round"/>
<path d="M15.6796 22.3653C28.0762 22.9429 40.7381 21.5191 53.1058 20.8521C55.3058 20.7335 58.078 20.1532 60.1321 20.2521C60.8707 20.2877 62.674 20.3164 63 19.7825" stroke="#FFD700" stroke-width="2" stroke-linecap="round" stroke-linejoin="round"/>
</svg>
